<svg width="222" height="221" viewBox="0 0 222 221" fill="none" xmlns="http://www.w3.org/2000/svg">
<path fill-rule="evenodd" clip-rule="evenodd" d="M91.7372 23.8969C89.169 22.0197 85.5211 22.9826 84.214 25.8828L82.0488 30.6869C80.9472 33.1311 78.1137 34.2747 75.6232 33.2803L70.7281 31.3259C67.7729 30.146 64.4789 31.9849 63.9346 35.1183L63.033 40.3088C62.5743 42.9495 60.1141 44.7611 57.454 44.4168L52.2255 43.7403C49.0691 43.3318 46.3358 45.9311 46.5885 49.1009L47.0072 54.3517C47.2202 57.0231 45.2879 59.3887 42.6253 59.7162L37.3919 60.3601C34.2326 60.7487 32.2319 63.9451 33.2658 66.9521L34.9783 71.9332C35.8496 74.4674 34.5667 77.2384 32.0689 78.2172L27.1595 80.141C24.1958 81.3023 23.0533 84.8949 24.8034 87.5502L27.7023 91.9486C29.1771 94.1864 28.6241 97.1888 26.4481 98.7572L22.1712 101.84C19.5893 103.701 19.3768 107.464 21.7331 109.601L25.6362 113.14C27.6219 114.941 27.8336 117.986 26.1161 120.046L22.7404 124.094C20.7025 126.538 21.4334 130.235 24.2478 131.719L28.9099 134.177C31.2818 135.427 32.2448 138.324 31.0937 140.745L28.8313 145.504C27.4655 148.377 29.0939 151.776 32.1896 152.514L37.3176 153.736C39.9266 154.358 41.5805 156.924 41.0682 159.555L40.0612 164.726C39.4533 167.848 41.8768 170.735 45.0594 170.68L50.3312 170.59C53.0134 170.544 55.2542 172.617 55.4128 175.293L55.7246 180.551C55.9128 183.725 58.9791 185.919 62.0485 185.075L67.1329 183.678C69.7197 182.967 72.4066 184.419 73.2262 186.97L74.8371 191.985C75.8096 195.012 79.3261 196.375 82.0895 194.796L86.667 192.179C88.9958 190.848 91.9601 191.586 93.3891 193.853L96.198 198.31C97.8936 201 101.639 201.446 103.923 199.23L107.706 195.558C109.631 193.69 112.686 193.669 114.635 195.51L118.465 199.128C120.777 201.312 124.517 200.813 126.177 198.099L128.928 193.604C130.328 191.317 133.282 190.537 135.628 191.835L140.239 194.387C143.023 195.928 146.521 194.516 147.454 191.475L149 186.438C149.786 183.876 152.454 182.386 155.05 183.061L160.152 184.387C163.232 185.187 166.269 182.951 166.416 179.774L166.66 174.512C166.784 171.835 168.997 169.729 171.68 169.738L176.952 169.754C180.135 169.764 182.521 166.843 181.873 163.73L180.799 158.574C180.252 155.95 181.873 153.362 184.473 152.703L189.585 151.409C192.671 150.628 194.255 147.207 192.852 144.353L190.528 139.626C189.345 137.221 190.271 134.311 192.626 133.028L197.256 130.504C200.051 128.981 200.734 125.274 198.664 122.859L195.236 118.859C193.492 116.823 193.664 113.776 195.626 111.947L199.483 108.353C201.811 106.184 201.55 102.424 198.944 100.599L194.627 97.5767C192.431 96.039 191.839 93.0446 193.285 90.7863L196.126 86.3476C197.842 83.668 196.653 80.0918 193.674 78.9721L188.74 77.1175C186.23 76.1739 184.911 73.421 185.749 70.8748L187.397 65.8702C188.392 62.8489 186.35 59.681 183.186 59.3367L177.944 58.7664C175.278 58.4762 173.315 56.1379 173.493 53.4638L173.844 48.2077C174.055 45.0346 171.288 42.4739 168.138 42.9266L162.918 43.6765C160.263 44.0581 157.779 42.2812 157.287 39.6472L156.318 34.4698C155.733 31.3443 152.415 29.5518 149.475 30.7731L144.606 32.7961C142.129 33.8253 139.281 32.7216 138.147 30.2931L135.92 25.5199C134.575 22.6383 130.915 21.7267 128.372 23.6397L124.158 26.8087C122.015 28.421 118.981 28.0597 117.279 25.9894L113.933 21.9202C111.913 19.4636 108.14 19.4901 106.153 21.9748L102.86 26.0906C101.185 28.1846 98.1558 28.5885 95.9914 27.0064L91.7372 23.8969ZM93.2328 30.5209C90.8664 28.7893 87.5062 29.6764 86.3027 32.3503L84.3093 36.7796C83.2951 39.0331 80.6851 40.0869 78.3905 39.1694L73.8805 37.366C71.1578 36.2773 68.1237 37.9721 67.6231 40.8613L66.7937 45.6472C66.3718 48.0821 64.1059 49.7519 61.6552 49.4339L56.8384 48.8087C53.9305 48.4313 51.4132 50.8274 51.6468 53.7504L52.0338 58.5922C52.2306 61.0555 50.4512 63.2364 47.9984 63.5377L43.1774 64.1301C40.2671 64.4877 38.4248 67.4346 39.3779 70.2076L40.9568 74.8011C41.7601 77.1381 40.5789 79.6929 38.2782 80.5948L33.756 82.3675C31.026 83.4377 29.9744 86.7501 31.5872 89.199L34.2588 93.2555C35.6181 95.3193 35.1094 98.0877 33.1052 99.5334L29.1659 102.375C26.7878 104.09 26.5931 107.56 28.7642 109.531L32.3607 112.796C34.1905 114.457 34.3862 117.265 32.8046 119.163L29.6957 122.895C27.819 125.148 28.4933 128.558 31.0863 129.927L35.3817 132.194C37.5671 133.348 38.455 136.019 37.3952 138.251L35.3121 142.639C34.0546 145.288 35.5556 148.423 38.4076 149.104L43.132 150.232C45.5357 150.806 47.0599 153.172 46.5886 155.598L45.6622 160.366C45.103 163.245 47.3363 165.908 50.2681 165.858L55.1247 165.776C57.5955 165.734 59.6603 167.647 59.8071 170.114L60.0956 174.962C60.2698 177.889 63.0951 179.913 65.9225 179.136L70.6061 177.849C72.9889 177.194 75.4646 178.533 76.2202 180.886L77.7055 185.51C78.6021 188.302 81.842 189.56 84.3873 188.104L88.6035 185.692C90.7486 184.465 93.4795 185.147 94.7966 187.238L97.3853 191.348C98.948 193.829 102.399 194.241 104.502 192.198L107.986 188.813C109.759 187.092 112.573 187.073 114.369 188.77L117.898 192.107C120.029 194.122 123.474 193.663 125.003 191.161L127.536 187.016C128.825 184.908 131.546 184.189 133.708 185.387L137.956 187.742C140.521 189.163 143.743 187.862 144.602 185.058L146.025 180.414C146.749 178.051 149.206 176.679 151.597 177.301L156.298 178.525C159.136 179.264 161.933 177.202 162.068 174.273L162.291 169.421C162.404 166.952 164.443 165.012 166.914 165.02L171.771 165.037C174.704 165.047 176.901 162.354 176.303 159.483L175.312 154.728C174.808 152.309 176.3 149.922 178.696 149.316L183.404 148.124C186.247 147.404 187.705 144.25 186.412 141.618L184.27 137.259C183.18 135.041 184.032 132.358 186.201 131.175L190.466 128.85C193.04 127.446 193.668 124.028 191.761 121.8L188.602 118.11C186.995 116.233 187.153 113.423 188.96 111.737L192.512 108.425C194.656 106.425 194.415 102.958 192.014 101.274L188.036 98.4863C186.013 97.0678 185.467 94.3066 186.798 92.2246L189.415 88.1324C190.994 85.6619 189.898 82.364 187.154 81.3308L182.608 79.6194C180.295 78.7487 179.08 76.21 179.851 73.8624L181.368 69.248C182.283 66.4624 180.401 63.5407 177.487 63.2224L172.658 62.6953C170.201 62.4271 168.393 60.2704 168.556 57.8047L168.878 52.9581C169.072 50.0323 166.522 47.6704 163.62 48.087L158.812 48.7772C156.366 49.1284 154.077 47.4894 153.623 45.0604L152.729 40.2861C152.189 37.404 149.132 35.7503 146.425 36.8757L141.939 38.7399C139.657 39.6884 137.033 38.6699 135.989 36.4303L133.936 32.0284C132.696 29.3709 129.324 28.5294 126.982 30.2928L123.101 33.2139C121.126 34.7001 118.332 34.3662 116.763 32.4567L113.679 28.7037C111.818 26.438 108.343 26.4615 106.512 28.7521L103.48 32.5465C101.937 34.477 99.147 34.8486 97.1527 33.3893L93.2328 30.5209Z" fill="url(#paint0_radial_113_779)"/>
<path fill-rule="evenodd" clip-rule="evenodd" d="M91.7372 23.8969C89.169 22.0197 85.5211 22.9826 84.214 25.8828L82.0488 30.6869C80.9472 33.1311 78.1137 34.2747 75.6232 33.2803L70.7281 31.3259C67.7729 30.146 64.4789 31.9849 63.9346 35.1183L63.033 40.3088C62.5743 42.9495 60.1141 44.7611 57.454 44.4168L52.2255 43.7403C49.0691 43.3318 46.3358 45.9311 46.5885 49.1009L47.0072 54.3517C47.2202 57.0231 45.2879 59.3887 42.6253 59.7162L37.3919 60.3601C34.2326 60.7487 32.2319 63.9451 33.2658 66.9521L34.9783 71.9332C35.8496 74.4674 34.5667 77.2384 32.0689 78.2172L27.1595 80.141C24.1958 81.3023 23.0533 84.8949 24.8034 87.5502L27.7023 91.9486C29.1771 94.1864 28.6241 97.1888 26.4481 98.7572L22.1712 101.84C19.5893 103.701 19.3768 107.464 21.7331 109.601L25.6362 113.14C27.6219 114.941 27.8336 117.986 26.1161 120.046L22.7404 124.094C20.7025 126.538 21.4334 130.235 24.2478 131.719L28.9099 134.177C31.2818 135.427 32.2448 138.324 31.0937 140.745L28.8313 145.504C27.4655 148.377 29.0939 151.776 32.1896 152.514L37.3176 153.736C39.9266 154.358 41.5805 156.924 41.0682 159.555L40.0612 164.726C39.4533 167.848 41.8768 170.735 45.0594 170.68L50.3312 170.59C53.0134 170.544 55.2542 172.617 55.4128 175.293L55.7246 180.551C55.9128 183.725 58.9791 185.919 62.0485 185.075L67.1329 183.678C69.7197 182.967 72.4066 184.419 73.2262 186.97L74.8371 191.985C75.8096 195.012 79.3261 196.375 82.0895 194.796L86.667 192.179C88.9958 190.848 91.9601 191.586 93.3891 193.853L96.198 198.31C97.8936 201 101.639 201.446 103.923 199.23L107.706 195.558C109.631 193.69 112.686 193.669 114.635 195.51L118.465 199.128C120.777 201.312 124.517 200.813 126.177 198.099L128.928 193.604C130.328 191.317 133.282 190.537 135.628 191.835L140.239 194.387C143.023 195.928 146.521 194.516 147.454 191.475L149 186.438C149.786 183.876 152.454 182.386 155.05 183.061L160.152 184.387C163.232 185.187 166.269 182.951 166.416 179.774L166.66 174.512C166.784 171.835 168.997 169.729 171.68 169.738L176.952 169.754C180.135 169.764 182.521 166.843 181.873 163.73L180.799 158.574C180.252 155.95 181.873 153.362 184.473 152.703L189.585 151.409C192.671 150.628 194.255 147.207 192.852 144.353L190.528 139.626C189.345 137.221 190.271 134.311 192.626 133.028L197.256 130.504C200.051 128.981 200.734 125.274 198.664 122.859L195.236 118.859C193.492 116.823 193.664 113.776 195.626 111.947L199.483 108.353C201.811 106.184 201.55 102.424 198.944 100.599L194.627 97.5767C192.431 96.039 191.839 93.0446 193.285 90.7863L196.126 86.3476C197.842 83.668 196.653 80.0918 193.674 78.9721L188.74 77.1175C186.23 76.1739 184.911 73.421 185.749 70.8748L187.397 65.8702C188.392 62.8489 186.35 59.681 183.186 59.3367L177.944 58.7664C175.278 58.4762 173.315 56.1379 173.493 53.4638L173.844 48.2077C174.055 45.0346 171.288 42.4739 168.138 42.9266L162.918 43.6765C160.263 44.0581 157.779 42.2812 157.287 39.6472L156.318 34.4698C155.733 31.3443 152.415 29.5518 149.475 30.7731L144.606 32.7961C142.129 33.8253 139.281 32.7216 138.147 30.2931L135.92 25.5199C134.575 22.6383 130.915 21.7267 128.372 23.6397L124.158 26.8087C122.015 28.421 118.981 28.0597 117.279 25.9894L113.933 21.9202C111.913 19.4636 108.14 19.4901 106.153 21.9748L102.86 26.0906C101.185 28.1846 98.1558 28.5885 95.9914 27.0064L91.7372 23.8969ZM93.2328 30.5209C90.8664 28.7893 87.5062 29.6764 86.3027 32.3503L84.3093 36.7796C83.2951 39.0331 80.6851 40.0869 78.3905 39.1694L73.8805 37.366C71.1578 36.2773 68.1237 37.9721 67.6231 40.8613L66.7937 45.6472C66.3718 48.0821 64.1059 49.7519 61.6552 49.4339L56.8384 48.8087C53.9305 48.4313 51.4132 50.8274 51.6468 53.7504L52.0338 58.5922C52.2306 61.0555 50.4512 63.2364 47.9984 63.5377L43.1774 64.1301C40.2671 64.4877 38.4248 67.4346 39.3779 70.2076L40.9568 74.8011C41.7601 77.1381 40.5789 79.6929 38.2782 80.5948L33.756 82.3675C31.026 83.4377 29.9744 86.7501 31.5872 89.199L34.2588 93.2555C35.6181 95.3193 35.1094 98.0877 33.1052 99.5334L29.1659 102.375C26.7878 104.09 26.5931 107.56 28.7642 109.531L32.3607 112.796C34.1905 114.457 34.3862 117.265 32.8046 119.163L29.6957 122.895C27.819 125.148 28.4933 128.558 31.0863 129.927L35.3817 132.194C37.5671 133.348 38.455 136.019 37.3952 138.251L35.3121 142.639C34.0546 145.288 35.5556 148.423 38.4076 149.104L43.132 150.232C45.5357 150.806 47.0599 153.172 46.5886 155.598L45.6622 160.366C45.103 163.245 47.3363 165.908 50.2681 165.858L55.1247 165.776C57.5955 165.734 59.6603 167.647 59.8071 170.114L60.0956 174.962C60.2698 177.889 63.0951 179.913 65.9225 179.136L70.6061 177.849C72.9889 177.194 75.4646 178.533 76.2202 180.886L77.7055 185.51C78.6021 188.302 81.842 189.56 84.3873 188.104L88.6035 185.692C90.7486 184.465 93.4795 185.147 94.7966 187.238L97.3853 191.348C98.948 193.829 102.399 194.241 104.502 192.198L107.986 188.813C109.759 187.092 112.573 187.073 114.369 188.77L117.898 192.107C120.029 194.122 123.474 193.663 125.003 191.161L127.536 187.016C128.825 184.908 131.546 184.189 133.708 185.387L137.956 187.742C140.521 189.163 143.743 187.862 144.602 185.058L146.025 180.414C146.749 178.051 149.206 176.679 151.597 177.301L156.298 178.525C159.136 179.264 161.933 177.202 162.068 174.273L162.291 169.421C162.404 166.952 164.443 165.012 166.914 165.02L171.771 165.037C174.704 165.047 176.901 162.354 176.303 159.483L175.312 154.728C174.808 152.309 176.3 149.922 178.696 149.316L183.404 148.124C186.247 147.404 187.705 144.25 186.412 141.618L184.27 137.259C183.18 135.041 184.032 132.358 186.201 131.175L190.466 128.85C193.04 127.446 193.668 124.028 191.761 121.8L188.602 118.11C186.995 116.233 187.153 113.423 188.96 111.737L192.512 108.425C194.656 106.425 194.415 102.958 192.014 101.274L188.036 98.4863C186.013 97.0678 185.467 94.3066 186.798 92.2246L189.415 88.1324C190.994 85.6619 189.898 82.364 187.154 81.3308L182.608 79.6194C180.295 78.7487 179.08 76.21 179.851 73.8624L181.368 69.248C182.283 66.4624 180.401 63.5407 177.487 63.2224L172.658 62.6953C170.201 62.4271 168.393 60.2704 168.556 57.8047L168.878 52.9581C169.072 50.0323 166.522 47.6704 163.62 48.087L158.812 48.7772C156.366 49.1284 154.077 47.4894 153.623 45.0604L152.729 40.2861C152.189 37.404 149.132 35.7503 146.425 36.8757L141.939 38.7399C139.657 39.6884 137.033 38.6699 135.989 36.4303L133.936 32.0284C132.696 29.3709 129.324 28.5294 126.982 30.2928L123.101 33.2139C121.126 34.7001 118.332 34.3662 116.763 32.4567L113.679 28.7037C111.818 26.438 108.343 26.4615 106.512 28.7521L103.48 32.5465C101.937 34.477 99.147 34.8486 97.1527 33.3893L93.2328 30.5209Z" fill="url(#paint1_linear_113_779)" style="mix-blend-mode:difference"/>
<path fill-rule="evenodd" clip-rule="evenodd" d="M91.7372 23.8969C89.169 22.0197 85.5211 22.9826 84.214 25.8828L82.0488 30.6869C80.9472 33.1311 78.1137 34.2747 75.6232 33.2803L70.7281 31.3259C67.7729 30.146 64.4789 31.9849 63.9346 35.1183L63.033 40.3088C62.5743 42.9495 60.1141 44.7611 57.454 44.4168L52.2255 43.7403C49.0691 43.3318 46.3358 45.9311 46.5885 49.1009L47.0072 54.3517C47.2202 57.0231 45.2879 59.3887 42.6253 59.7162L37.3919 60.3601C34.2326 60.7487 32.2319 63.9451 33.2658 66.9521L34.9783 71.9332C35.8496 74.4674 34.5667 77.2384 32.0689 78.2172L27.1595 80.141C24.1958 81.3023 23.0533 84.8949 24.8034 87.5502L27.7023 91.9486C29.1771 94.1864 28.6241 97.1888 26.4481 98.7572L22.1712 101.84C19.5893 103.701 19.3768 107.464 21.7331 109.601L25.6362 113.14C27.6219 114.941 27.8336 117.986 26.1161 120.046L22.7404 124.094C20.7025 126.538 21.4334 130.235 24.2478 131.719L28.9099 134.177C31.2818 135.427 32.2448 138.324 31.0937 140.745L28.8313 145.504C27.4655 148.377 29.0939 151.776 32.1896 152.514L37.3176 153.736C39.9266 154.358 41.5805 156.924 41.0682 159.555L40.0612 164.726C39.4533 167.848 41.8768 170.735 45.0594 170.68L50.3312 170.59C53.0134 170.544 55.2542 172.617 55.4128 175.293L55.7246 180.551C55.9128 183.725 58.9791 185.919 62.0485 185.075L67.1329 183.678C69.7197 182.967 72.4066 184.419 73.2262 186.97L74.8371 191.985C75.8096 195.012 79.3261 196.375 82.0895 194.796L86.667 192.179C88.9958 190.848 91.9601 191.586 93.3891 193.853L96.198 198.31C97.8936 201 101.639 201.446 103.923 199.23L107.706 195.558C109.631 193.69 112.686 193.669 114.635 195.51L118.465 199.128C120.777 201.312 124.517 200.813 126.177 198.099L128.928 193.604C130.328 191.317 133.282 190.537 135.628 191.835L140.239 194.387C143.023 195.928 146.521 194.516 147.454 191.475L149 186.438C149.786 183.876 152.454 182.386 155.05 183.061L160.152 184.387C163.232 185.187 166.269 182.951 166.416 179.774L166.66 174.512C166.784 171.835 168.997 169.729 171.68 169.738L176.952 169.754C180.135 169.764 182.521 166.843 181.873 163.73L180.799 158.574C180.252 155.95 181.873 153.362 184.473 152.703L189.585 151.409C192.671 150.628 194.255 147.207 192.852 144.353L190.528 139.626C189.345 137.221 190.271 134.311 192.626 133.028L197.256 130.504C200.051 128.981 200.734 125.274 198.664 122.859L195.236 118.859C193.492 116.823 193.664 113.776 195.626 111.947L199.483 108.353C201.811 106.184 201.55 102.424 198.944 100.599L194.627 97.5767C192.431 96.039 191.839 93.0446 193.285 90.7863L196.126 86.3476C197.842 83.668 196.653 80.0918 193.674 78.9721L188.74 77.1175C186.23 76.1739 184.911 73.421 185.749 70.8748L187.397 65.8702C188.392 62.8489 186.35 59.681 183.186 59.3367L177.944 58.7664C175.278 58.4762 173.315 56.1379 173.493 53.4638L173.844 48.2077C174.055 45.0346 171.288 42.4739 168.138 42.9266L162.918 43.6765C160.263 44.0581 157.779 42.2812 157.287 39.6472L156.318 34.4698C155.733 31.3443 152.415 29.5518 149.475 30.7731L144.606 32.7961C142.129 33.8253 139.281 32.7216 138.147 30.2931L135.92 25.5199C134.575 22.6383 130.915 21.7267 128.372 23.6397L124.158 26.8087C122.015 28.421 118.981 28.0597 117.279 25.9894L113.933 21.9202C111.913 19.4636 108.14 19.4901 106.153 21.9748L102.86 26.0906C101.185 28.1846 98.1558 28.5885 95.9914 27.0064L91.7372 23.8969ZM93.2328 30.5209C90.8664 28.7893 87.5062 29.6764 86.3027 32.3503L84.3093 36.7796C83.2951 39.0331 80.6851 40.0869 78.3905 39.1694L73.8805 37.366C71.1578 36.2773 68.1237 37.9721 67.6231 40.8613L66.7937 45.6472C66.3718 48.0821 64.1059 49.7519 61.6552 49.4339L56.8384 48.8087C53.9305 48.4313 51.4132 50.8274 51.6468 53.7504L52.0338 58.5922C52.2306 61.0555 50.4512 63.2364 47.9984 63.5377L43.1774 64.1301C40.2671 64.4877 38.4248 67.4346 39.3779 70.2076L40.9568 74.8011C41.7601 77.1381 40.5789 79.6929 38.2782 80.5948L33.756 82.3675C31.026 83.4377 29.9744 86.7501 31.5872 89.199L34.2588 93.2555C35.6181 95.3193 35.1094 98.0877 33.1052 99.5334L29.1659 102.375C26.7878 104.09 26.5931 107.56 28.7642 109.531L32.3607 112.796C34.1905 114.457 34.3862 117.265 32.8046 119.163L29.6957 122.895C27.819 125.148 28.4933 128.558 31.0863 129.927L35.3817 132.194C37.5671 133.348 38.455 136.019 37.3952 138.251L35.3121 142.639C34.0546 145.288 35.5556 148.423 38.4076 149.104L43.132 150.232C45.5357 150.806 47.0599 153.172 46.5886 155.598L45.6622 160.366C45.103 163.245 47.3363 165.908 50.2681 165.858L55.1247 165.776C57.5955 165.734 59.6603 167.647 59.8071 170.114L60.0956 174.962C60.2698 177.889 63.0951 179.913 65.9225 179.136L70.6061 177.849C72.9889 177.194 75.4646 178.533 76.2202 180.886L77.7055 185.51C78.6021 188.302 81.842 189.56 84.3873 188.104L88.6035 185.692C90.7486 184.465 93.4795 185.147 94.7966 187.238L97.3853 191.348C98.948 193.829 102.399 194.241 104.502 192.198L107.986 188.813C109.759 187.092 112.573 187.073 114.369 188.77L117.898 192.107C120.029 194.122 123.474 193.663 125.003 191.161L127.536 187.016C128.825 184.908 131.546 184.189 133.708 185.387L137.956 187.742C140.521 189.163 143.743 187.862 144.602 185.058L146.025 180.414C146.749 178.051 149.206 176.679 151.597 177.301L156.298 178.525C159.136 179.264 161.933 177.202 162.068 174.273L162.291 169.421C162.404 166.952 164.443 165.012 166.914 165.02L171.771 165.037C174.704 165.047 176.901 162.354 176.303 159.483L175.312 154.728C174.808 152.309 176.3 149.922 178.696 149.316L183.404 148.124C186.247 147.404 187.705 144.25 186.412 141.618L184.27 137.259C183.18 135.041 184.032 132.358 186.201 131.175L190.466 128.85C193.04 127.446 193.668 124.028 191.761 121.8L188.602 118.11C186.995 116.233 187.153 113.423 188.96 111.737L192.512 108.425C194.656 106.425 194.415 102.958 192.014 101.274L188.036 98.4863C186.013 97.0678 185.467 94.3066 186.798 92.2246L189.415 88.1324C190.994 85.6619 189.898 82.364 187.154 81.3308L182.608 79.6194C180.295 78.7487 179.08 76.21 179.851 73.8624L181.368 69.248C182.283 66.4624 180.401 63.5407 177.487 63.2224L172.658 62.6953C170.201 62.4271 168.393 60.2704 168.556 57.8047L168.878 52.9581C169.072 50.0323 166.522 47.6704 163.62 48.087L158.812 48.7772C156.366 49.1284 154.077 47.4894 153.623 45.0604L152.729 40.2861C152.189 37.404 149.132 35.7503 146.425 36.8757L141.939 38.7399C139.657 39.6884 137.033 38.6699 135.989 36.4303L133.936 32.0284C132.696 29.3709 129.324 28.5294 126.982 30.2928L123.101 33.2139C121.126 34.7001 118.332 34.3662 116.763 32.4567L113.679 28.7037C111.818 26.438 108.343 26.4615 106.512 28.7521L103.48 32.5465C101.937 34.477 99.147 34.8486 97.1527 33.3893L93.2328 30.5209Z" fill="url(#paint2_linear_113_779)" style="mix-blend-mode:screen"/>
<path d="M87.0219 34.8597C88.1859 32.2729 91.4362 31.4149 93.7252 33.0903L97.517 35.8655C99.4461 37.2774 102.145 36.918 103.637 35.0504L106.57 31.3797C108.341 29.1636 111.702 29.1411 113.503 31.3332L116.486 34.9643C118.003 36.8117 120.706 37.1348 122.616 35.6971L126.37 32.8713C128.636 31.1654 131.898 31.9797 133.097 34.5507L135.083 38.8095C136.093 40.9763 138.632 41.9618 140.839 41.0443L145.177 39.241C147.796 38.1523 150.753 39.7523 151.275 42.5407L152.14 47.1597C152.58 49.5097 154.794 51.0955 157.16 50.7559L161.81 50.0884C164.618 49.6854 167.084 51.9706 166.897 54.8012L166.586 59.4901C166.428 61.8756 168.177 63.9622 170.554 64.2218L175.224 64.732C178.044 65.0401 179.864 67.8668 178.979 70.5617L177.512 75.0259C176.766 77.2971 177.942 79.7533 180.179 80.5958L184.576 82.2517C187.231 83.2514 188.291 86.4421 186.763 88.8321L184.233 92.791C182.945 94.8052 183.473 97.4766 185.431 98.8491L189.278 101.547C191.601 103.175 191.835 106.529 189.761 108.464L186.325 111.669C184.577 113.3 184.424 116.019 185.979 117.835L189.035 121.405C190.88 123.56 190.272 126.866 187.782 128.225L183.658 130.474C181.559 131.619 180.735 134.214 181.79 136.36L183.862 140.578C185.113 143.124 183.702 146.175 180.953 146.871L176.398 148.024C174.081 148.611 172.638 150.92 173.126 153.26L174.084 157.861C174.663 160.638 172.538 163.243 169.701 163.233L165.003 163.217C162.613 163.209 160.641 165.086 160.531 167.475L160.316 172.169C160.186 175.003 157.48 176.997 154.735 176.282L150.188 175.098C147.875 174.495 145.498 175.823 144.798 178.109L143.422 182.602C142.591 185.314 139.474 186.573 136.993 185.198L132.884 182.92C130.793 181.761 128.16 182.456 126.914 184.496L124.464 188.505C122.985 190.926 119.653 191.37 117.592 189.42L114.178 186.192C112.441 184.549 109.718 184.567 108.004 186.233L104.634 189.507C102.6 191.484 99.2617 191.085 97.7499 188.684L95.2457 184.708C93.9716 182.685 91.33 182.026 89.2551 183.213L85.177 185.545C82.715 186.954 79.5811 185.737 78.7136 183.036L77.2767 178.562C76.5457 176.286 74.1509 174.99 71.8461 175.623L67.3158 176.869C64.581 177.62 61.8479 175.662 61.6793 172.83L61.4 168.139C61.2579 165.753 59.2605 163.902 56.8705 163.942L52.1729 164.022C49.3369 164.07 47.1765 161.493 47.7173 158.709L48.6132 154.096C49.0689 151.749 47.5945 149.459 45.2694 148.904L40.6995 147.812C37.9407 147.153 36.4887 144.121 37.705 141.558L39.7197 137.313C40.7447 135.153 39.8857 132.569 37.7718 131.453L33.6168 129.259C31.1085 127.934 30.4561 124.636 32.2713 122.456L35.2783 118.846C36.8081 117.009 36.6186 114.292 34.8486 112.685L31.3696 109.527C29.2694 107.62 29.4576 104.263 31.7578 102.603L35.5681 99.8543C37.5066 98.4557 37.9985 95.7774 36.6837 93.7807L34.0992 89.8561C32.539 87.4868 33.556 84.2822 36.1967 83.247L40.5708 81.5322C42.7963 80.6598 43.9387 78.1881 43.1616 75.9271L41.6341 71.483C40.712 68.8001 42.4939 65.9493 45.309 65.6034L49.9723 65.0306C52.3448 64.7391 54.0659 62.6293 53.8754 60.2461L53.5008 55.5618C53.2747 52.734 55.7096 50.4159 58.5223 50.7812L63.1816 51.3863C65.5521 51.6941 67.7438 50.0787 68.1518 47.7231L68.9538 43.0929C69.4379 40.2977 72.3727 38.6582 75.0063 39.7116L79.3689 41.4566C81.5884 42.3444 84.113 41.325 85.0939 39.1448L87.0219 34.8597Z" fill="url(#paint3_radial_113_779)"/>
<path d="M87.0219 34.8597C88.1859 32.2729 91.4362 31.4149 93.7252 33.0903L97.517 35.8655C99.4461 37.2774 102.145 36.918 103.637 35.0504L106.57 31.3797C108.341 29.1636 111.702 29.1411 113.503 31.3332L116.486 34.9643C118.003 36.8117 120.706 37.1348 122.616 35.6971L126.37 32.8713C128.636 31.1654 131.898 31.9797 133.097 34.5507L135.083 38.8095C136.093 40.9763 138.632 41.9618 140.839 41.0443L145.177 39.241C147.796 38.1523 150.753 39.7523 151.275 42.5407L152.14 47.1597C152.58 49.5097 154.794 51.0955 157.16 50.7559L161.81 50.0884C164.618 49.6854 167.084 51.9706 166.897 54.8012L166.586 59.4901C166.428 61.8756 168.177 63.9622 170.554 64.2218L175.224 64.732C178.044 65.0401 179.864 67.8668 178.979 70.5617L177.512 75.0259C176.766 77.2971 177.942 79.7533 180.179 80.5958L184.576 82.2517C187.231 83.2514 188.291 86.4421 186.763 88.8321L184.233 92.791C182.945 94.8052 183.473 97.4766 185.431 98.8491L189.278 101.547C191.601 103.175 191.835 106.529 189.761 108.464L186.325 111.669C184.577 113.3 184.424 116.019 185.979 117.835L189.035 121.405C190.88 123.56 190.272 126.866 187.782 128.225L183.658 130.474C181.559 131.619 180.735 134.214 181.79 136.36L183.862 140.578C185.113 143.124 183.702 146.175 180.953 146.871L176.398 148.024C174.081 148.611 172.638 150.92 173.126 153.26L174.084 157.861C174.663 160.638 172.538 163.243 169.701 163.233L165.003 163.217C162.613 163.209 160.641 165.086 160.531 167.475L160.316 172.169C160.186 175.003 157.48 176.997 154.735 176.282L150.188 175.098C147.875 174.495 145.498 175.823 144.798 178.109L143.422 182.602C142.591 185.314 139.474 186.573 136.993 185.198L132.884 182.92C130.793 181.761 128.16 182.456 126.914 184.496L124.464 188.505C122.985 190.926 119.653 191.37 117.592 189.42L114.178 186.192C112.441 184.549 109.718 184.567 108.004 186.233L104.634 189.507C102.6 191.484 99.2617 191.085 97.7499 188.684L95.2457 184.708C93.9716 182.685 91.33 182.026 89.2551 183.213L85.177 185.545C82.715 186.954 79.5811 185.737 78.7136 183.036L77.2767 178.562C76.5457 176.286 74.1509 174.99 71.8461 175.623L67.3158 176.869C64.581 177.62 61.8479 175.662 61.6793 172.83L61.4 168.139C61.2579 165.753 59.2605 163.902 56.8705 163.942L52.1729 164.022C49.3369 164.07 47.1765 161.493 47.7173 158.709L48.6132 154.096C49.0689 151.749 47.5945 149.459 45.2694 148.904L40.6995 147.812C37.9407 147.153 36.4887 144.121 37.705 141.558L39.7197 137.313C40.7447 135.153 39.8857 132.569 37.7718 131.453L33.6168 129.259C31.1085 127.934 30.4561 124.636 32.2713 122.456L35.2783 118.846C36.8081 117.009 36.6186 114.292 34.8486 112.685L31.3696 109.527C29.2694 107.62 29.4576 104.263 31.7578 102.603L35.5681 99.8543C37.5066 98.4557 37.9985 95.7774 36.6837 93.7807L34.0992 89.8561C32.539 87.4868 33.556 84.2822 36.1967 83.247L40.5708 81.5322C42.7963 80.6598 43.9387 78.1881 43.1616 75.9271L41.6341 71.483C40.712 68.8001 42.4939 65.9493 45.309 65.6034L49.9723 65.0306C52.3448 64.7391 54.0659 62.6293 53.8754 60.2461L53.5008 55.5618C53.2747 52.734 55.7096 50.4159 58.5223 50.7812L63.1816 51.3863C65.5521 51.6941 67.7438 50.0787 68.1518 47.7231L68.9538 43.0929C69.4379 40.2977 72.3727 38.6582 75.0063 39.7116L79.3689 41.4566C81.5884 42.3444 84.113 41.325 85.0939 39.1448L87.0219 34.8597Z" fill="url(#paint4_linear_113_779)" style="mix-blend-mode:difference"/>
<path d="M87.0219 34.8597C88.1859 32.2729 91.4362 31.4149 93.7252 33.0903L97.517 35.8655C99.4461 37.2774 102.145 36.918 103.637 35.0504L106.57 31.3797C108.341 29.1636 111.702 29.1411 113.503 31.3332L116.486 34.9643C118.003 36.8117 120.706 37.1348 122.616 35.6971L126.37 32.8713C128.636 31.1654 131.898 31.9797 133.097 34.5507L135.083 38.8095C136.093 40.9763 138.632 41.9618 140.839 41.0443L145.177 39.241C147.796 38.1523 150.753 39.7523 151.275 42.5407L152.14 47.1597C152.58 49.5097 154.794 51.0955 157.16 50.7559L161.81 50.0884C164.618 49.6854 167.084 51.9706 166.897 54.8012L166.586 59.4901C166.428 61.8756 168.177 63.9622 170.554 64.2218L175.224 64.732C178.044 65.0401 179.864 67.8668 178.979 70.5617L177.512 75.0259C176.766 77.2971 177.942 79.7533 180.179 80.5958L184.576 82.2517C187.231 83.2514 188.291 86.4421 186.763 88.8321L184.233 92.791C182.945 94.8052 183.473 97.4766 185.431 98.8491L189.278 101.547C191.601 103.175 191.835 106.529 189.761 108.464L186.325 111.669C184.577 113.3 184.424 116.019 185.979 117.835L189.035 121.405C190.88 123.56 190.272 126.866 187.782 128.225L183.658 130.474C181.559 131.619 180.735 134.214 181.79 136.36L183.862 140.578C185.113 143.124 183.702 146.175 180.953 146.871L176.398 148.024C174.081 148.611 172.638 150.92 173.126 153.26L174.084 157.861C174.663 160.638 172.538 163.243 169.701 163.233L165.003 163.217C162.613 163.209 160.641 165.086 160.531 167.475L160.316 172.169C160.186 175.003 157.48 176.997 154.735 176.282L150.188 175.098C147.875 174.495 145.498 175.823 144.798 178.109L143.422 182.602C142.591 185.314 139.474 186.573 136.993 185.198L132.884 182.92C130.793 181.761 128.16 182.456 126.914 184.496L124.464 188.505C122.985 190.926 119.653 191.37 117.592 189.42L114.178 186.192C112.441 184.549 109.718 184.567 108.004 186.233L104.634 189.507C102.6 191.484 99.2617 191.085 97.7499 188.684L95.2457 184.708C93.9716 182.685 91.33 182.026 89.2551 183.213L85.177 185.545C82.715 186.954 79.5811 185.737 78.7136 183.036L77.2767 178.562C76.5457 176.286 74.1509 174.99 71.8461 175.623L67.3158 176.869C64.581 177.62 61.8479 175.662 61.6793 172.83L61.4 168.139C61.2579 165.753 59.2605 163.902 56.8705 163.942L52.1729 164.022C49.3369 164.07 47.1765 161.493 47.7173 158.709L48.6132 154.096C49.0689 151.749 47.5945 149.459 45.2694 148.904L40.6995 147.812C37.9407 147.153 36.4887 144.121 37.705 141.558L39.7197 137.313C40.7447 135.153 39.8857 132.569 37.7718 131.453L33.6168 129.259C31.1085 127.934 30.4561 124.636 32.2713 122.456L35.2783 118.846C36.8081 117.009 36.6186 114.292 34.8486 112.685L31.3696 109.527C29.2694 107.62 29.4576 104.263 31.7578 102.603L35.5681 99.8543C37.5066 98.4557 37.9985 95.7774 36.6837 93.7807L34.0992 89.8561C32.539 87.4868 33.556 84.2822 36.1967 83.247L40.5708 81.5322C42.7963 80.6598 43.9387 78.1881 43.1616 75.9271L41.6341 71.483C40.712 68.8001 42.4939 65.9493 45.309 65.6034L49.9723 65.0306C52.3448 64.7391 54.0659 62.6293 53.8754 60.2461L53.5008 55.5618C53.2747 52.734 55.7096 50.4159 58.5223 50.7812L63.1816 51.3863C65.5521 51.6941 67.7438 50.0787 68.1518 47.7231L68.9538 43.0929C69.4379 40.2977 72.3727 38.6582 75.0063 39.7116L79.3689 41.4566C81.5884 42.3444 84.113 41.325 85.0939 39.1448L87.0219 34.8597Z" fill="url(#paint5_linear_113_779)" style="mix-blend-mode:screen"/>
<g clip-path="url(#clip0_113_779)">
<path d="M57.1069 121.676C53.2541 104.268 55.9201 85.4775 69.7589 69.384C73.4589 65.0779 78.363 61.6687 83.1056 58.4146C106.406 42.4556 142.734 51.9878 158.152 82.6972C169.198 104.685 168.821 126.696 154.613 147.184C135.257 175.104 96.1403 176.994 72.8374 151.695C65.5643 143.829 60.6464 134.914 57.1069 121.676ZM123.427 160.882C135.564 157.431 144.357 150.858 150.389 140.897C160.335 124.459 161.11 107.112 154.021 89.5467C148.437 75.7232 138.723 65.5994 124.731 59.8896C111.55 54.528 98.6444 56.09 86.3868 62.4076C82.1471 64.5841 78.4611 68.3467 75.3231 72.0546C56.6464 94.1944 59.5062 129.231 81.5085 149.091C93.735 160.127 107.974 164.467 123.427 160.882Z" fill="black"/>
<path d="M142.139 110.073C140.72 109.637 139.536 109.5 138.637 108.905C137.961 108.476 137.294 107.91 137.336 106.706C137.371 105.73 138.546 105.239 139.122 105.29C142.884 105.737 146.632 106.299 150.331 107.1C150.997 107.239 152.011 108.097 151.812 109.386C151.582 110.819 150.842 111.082 149.429 111.185C148.57 111.254 147.581 111.088 146.457 111.003C144.71 126.289 136.617 136.793 122 141.417C107.841 145.897 94.8459 142.263 82.8936 133.63C81.909 134.588 81.0176 135.813 79.8081 136.515C78.8497 137.06 76.8898 138.072 76.371 137.129C75.3137 135.766 76.2329 134.646 76.8135 133.863C78.865 130.982 81.097 128.188 83.5219 125.613C84.2763 124.807 85.8276 123.61 87.0051 124.491C88.5183 125.622 87.6058 126.852 86.9835 128.074C86.7159 128.595 86.3742 129.09 85.9297 129.792C98.1495 137.904 111.004 140.923 124.762 134.749C135.142 130.097 140.569 121.51 142.139 110.073Z" fill="black"/>
<path d="M124.728 87.8311C124.066 85.6661 123.537 84.3435 123.451 82.5667C123.4 81.5227 124.148 79.8404 124.962 79.5132C126.2 79.0063 127.574 79.9485 128.128 80.7696C131.662 85.9781 134.054 91.7133 134.806 97.9712C134.925 99.0195 133.931 100.879 133.059 101.154C132.145 101.441 130.571 101.361 129.711 99.721C127.678 95.9384 125.152 89.1815 124.728 87.8311Z" fill="black"/>
<path d="M81.8604 106.705C80.8167 102.752 80.4079 100.947 80.25 98.5593C80.1795 97.6106 80.279 95.9421 81.6305 95.6078C82.7218 95.1398 84.079 96.4463 84.4527 97.18C86.718 101.756 89.027 108.458 90.6147 114.473C91.0366 116.071 91.1244 117.938 89.038 118.556C86.8309 119.229 85.9384 117.552 85.2784 115.904C83.9152 112.529 82.9348 110.179 81.8604 106.705Z" fill="black"/>
</g>
<defs>
<radialGradient id="paint0_radial_113_779" cx="0" cy="0" r="1" gradientUnits="userSpaceOnUse" gradientTransform="translate(175.005 0.00010053) rotate(120.297) scale(255.596 255.595)">
<stop stop-color="#78FFF1"/>
<stop offset="0.2" stop-color="#D0DEFF"/>
<stop offset="0.4" stop-color="#DF97DF"/>
<stop offset="0.6" stop-color="#97EBBE"/>
<stop offset="0.8" stop-color="#F1FCAF"/>
<stop offset="1" stop-color="#C2E3F1"/>
</radialGradient>
<linearGradient id="paint1_linear_113_779" x1="0" y1="46.1967" x2="237.364" y2="71.6682" gradientUnits="userSpaceOnUse">
<stop stop-color="white"/>
<stop offset="0.25"/>
<stop offset="0.5" stop-color="white"/>
<stop offset="0.75"/>
<stop offset="1" stop-color="white"/>
</linearGradient>
<linearGradient id="paint2_linear_113_779" x1="0" y1="46.1967" x2="237.364" y2="71.6682" gradientUnits="userSpaceOnUse">
<stop stop-color="white"/>
<stop offset="0.234375"/>
<stop offset="0.489583" stop-color="white"/>
<stop offset="0.734375"/>
<stop offset="1" stop-color="white"/>
</linearGradient>
<radialGradient id="paint3_radial_113_779" cx="0" cy="0" r="1" gradientUnits="userSpaceOnUse" gradientTransform="translate(167.918 11.7957) rotate(120.26) scale(227.887 227.887)">
<stop stop-color="#78FFF1"/>
<stop offset="0.2" stop-color="#D0DEFF"/>
<stop offset="0.4" stop-color="#DF97DF"/>
<stop offset="0.6" stop-color="#97EBBE"/>
<stop offset="0.8" stop-color="#F1FCAF"/>
<stop offset="1" stop-color="#C2E3F1"/>
</radialGradient>
<linearGradient id="paint4_linear_113_779" x1="11.9854" y1="52.9576" x2="223.526" y2="75.5658" gradientUnits="userSpaceOnUse">
<stop stop-color="white"/>
<stop offset="0.25"/>
<stop offset="0.5" stop-color="white"/>
<stop offset="0.75"/>
<stop offset="1" stop-color="white"/>
</linearGradient>
<linearGradient id="paint5_linear_113_779" x1="11.9854" y1="52.9576" x2="223.526" y2="75.5658" gradientUnits="userSpaceOnUse">
<stop stop-color="white"/>
<stop offset="0.234375"/>
<stop offset="0.489583" stop-color="white"/>
<stop offset="0.734375"/>
<stop offset="1" stop-color="white"/>
</linearGradient>
<clipPath id="clip0_113_779">
<rect width="125.287" height="125.287" fill="white" transform="translate(34.0703 65.5992) rotate(-14.7872)"/>
</clipPath>
</defs>
</svg>
