<svg width="173" height="73" viewBox="0 0 173 73" fill="none" xmlns="http://www.w3.org/2000/svg">
<g clip-path="url(#clip0_95_284)">
<g filter="url(#filter0_d_95_284)">
<circle cx="36.0762" cy="30.6016" r="15.3428" fill="#48258F"/>
<circle cx="36.0762" cy="30.6016" r="15.3428" fill="url(#paint0_radial_95_284)"/>
<circle cx="36.0762" cy="30.6016" r="15.3428" fill="url(#paint1_radial_95_284)"/>
<circle cx="36.0762" cy="30.6016" r="15.3428" fill="url(#paint2_radial_95_284)"/>
<circle cx="36.0762" cy="30.6016" r="15.3428" fill="url(#paint3_radial_95_284)"/>
<path fill-rule="evenodd" clip-rule="evenodd" d="M36.0757 47.6025C45.4653 47.6025 53.0771 39.9907 53.0771 30.601C53.0771 21.2114 45.4653 13.5996 36.0757 13.5996C26.686 13.5996 19.0742 21.2114 19.0742 30.601C19.0742 39.9907 26.686 47.6025 36.0757 47.6025ZM36.0759 46.898C45.0764 46.898 52.3726 39.6017 52.3726 30.6013C52.3726 21.6009 45.0764 14.3046 36.0759 14.3046C27.0755 14.3046 19.7792 21.6009 19.7792 30.6013C19.7792 39.6017 27.0755 46.898 36.0759 46.898Z" fill="#48258F"/>
<path fill-rule="evenodd" clip-rule="evenodd" d="M36.0757 47.6025C45.4653 47.6025 53.0771 39.9907 53.0771 30.601C53.0771 21.2114 45.4653 13.5996 36.0757 13.5996C26.686 13.5996 19.0742 21.2114 19.0742 30.601C19.0742 39.9907 26.686 47.6025 36.0757 47.6025ZM36.0759 46.898C45.0764 46.898 52.3726 39.6017 52.3726 30.6013C52.3726 21.6009 45.0764 14.3046 36.0759 14.3046C27.0755 14.3046 19.7792 21.6009 19.7792 30.6013C19.7792 39.6017 27.0755 46.898 36.0759 46.898Z" fill="url(#paint4_radial_95_284)"/>
<path fill-rule="evenodd" clip-rule="evenodd" d="M36.0757 47.6025C45.4653 47.6025 53.0771 39.9907 53.0771 30.601C53.0771 21.2114 45.4653 13.5996 36.0757 13.5996C26.686 13.5996 19.0742 21.2114 19.0742 30.601C19.0742 39.9907 26.686 47.6025 36.0757 47.6025ZM36.0759 46.898C45.0764 46.898 52.3726 39.6017 52.3726 30.6013C52.3726 21.6009 45.0764 14.3046 36.0759 14.3046C27.0755 14.3046 19.7792 21.6009 19.7792 30.6013C19.7792 39.6017 27.0755 46.898 36.0759 46.898Z" fill="url(#paint5_radial_95_284)"/>
<path fill-rule="evenodd" clip-rule="evenodd" d="M36.0757 47.6025C45.4653 47.6025 53.0771 39.9907 53.0771 30.601C53.0771 21.2114 45.4653 13.5996 36.0757 13.5996C26.686 13.5996 19.0742 21.2114 19.0742 30.601C19.0742 39.9907 26.686 47.6025 36.0757 47.6025ZM36.0759 46.898C45.0764 46.898 52.3726 39.6017 52.3726 30.6013C52.3726 21.6009 45.0764 14.3046 36.0759 14.3046C27.0755 14.3046 19.7792 21.6009 19.7792 30.6013C19.7792 39.6017 27.0755 46.898 36.0759 46.898Z" fill="url(#paint6_radial_95_284)"/>
<path fill-rule="evenodd" clip-rule="evenodd" d="M36.0757 47.6025C45.4653 47.6025 53.0771 39.9907 53.0771 30.601C53.0771 21.2114 45.4653 13.5996 36.0757 13.5996C26.686 13.5996 19.0742 21.2114 19.0742 30.601C19.0742 39.9907 26.686 47.6025 36.0757 47.6025ZM36.0759 46.898C45.0764 46.898 52.3726 39.6017 52.3726 30.6013C52.3726 21.6009 45.0764 14.3046 36.0759 14.3046C27.0755 14.3046 19.7792 21.6009 19.7792 30.6013C19.7792 39.6017 27.0755 46.898 36.0759 46.898Z" fill="url(#paint7_radial_95_284)"/>
</g>
<path d="M40.3995 30.1497H44.8423V38.6395C43.7016 39.4964 42.3807 40.1541 40.8798 40.6124C39.3789 41.0708 37.8679 41.3 36.347 41.3C34.1656 41.3 32.2044 40.8416 30.4633 39.9249C28.7223 38.9882 27.3514 37.7028 26.3508 36.0686C25.3702 34.4145 24.8799 32.5511 24.8799 30.4785C24.8799 28.4059 25.3702 26.5525 26.3508 24.9183C27.3514 23.2642 28.7323 21.9788 30.4934 21.0621C32.2545 20.1254 34.2357 19.6571 36.437 19.6571C38.2782 19.6571 39.9492 19.966 41.4502 20.5838C42.9511 21.2016 44.2119 22.0984 45.2325 23.2742L42.1106 26.144C40.6096 24.5696 38.7985 23.7824 36.6772 23.7824C35.3364 23.7824 34.1456 24.0614 33.105 24.6194C32.0643 25.1774 31.2538 25.9646 30.6735 26.981C30.0931 27.9974 29.8029 29.1632 29.8029 30.4785C29.8029 31.7739 30.0931 32.9298 30.6735 33.9462C31.2538 34.9626 32.0543 35.7597 33.075 36.3377C34.1156 36.8957 35.2963 37.1747 36.6172 37.1747C38.018 37.1747 39.2788 36.8757 40.3995 36.2779V30.1497Z" fill="white"/>
<path d="M65.2995 24.8585V40.9413H60.8567V39.0281C60.2363 39.7256 59.4959 40.2637 58.6353 40.6423C57.7748 41.0011 56.8442 41.1804 55.8436 41.1804C53.7223 41.1804 52.0413 40.5726 50.8005 39.3569C49.5597 38.1412 48.9393 36.3377 48.9393 33.9462V24.8585H53.6222V33.2586C53.6222 35.8494 54.7129 37.1448 56.8943 37.1448C58.015 37.1448 58.9155 36.7861 59.5959 36.0686C60.2764 35.3312 60.6166 34.2451 60.6166 32.8102V24.8585H65.2995Z" fill="white"/>
<path d="M69.6379 24.8585H74.3208V40.9413H69.6379V24.8585ZM71.9793 22.6165C71.1188 22.6165 70.4183 22.3674 69.878 21.8692C69.3377 21.371 69.0675 20.7532 69.0675 20.0158C69.0675 19.2784 69.3377 18.6606 69.878 18.1624C70.4183 17.6642 71.1188 17.415 71.9793 17.415C72.8398 17.415 73.5403 17.6542 74.0806 18.1325C74.6209 18.6108 74.8911 19.2087 74.8911 19.9261C74.8911 20.7033 74.6209 21.351 74.0806 21.8692C73.5403 22.3674 72.8398 22.6165 71.9793 22.6165Z" fill="white"/>
<path d="M89.0834 40.164C88.6231 40.5028 88.0527 40.7619 87.3723 40.9413C86.7119 41.1007 86.0114 41.1804 85.271 41.1804C83.3498 41.1804 81.8589 40.6922 80.7982 39.7156C79.7576 38.7391 79.2373 37.3042 79.2373 35.411V28.8045H76.7457V25.2173H79.2373V21.3012H83.9202V25.2173H87.9426V28.8045H83.9202V35.3512C83.9202 36.0288 84.0903 36.5569 84.4305 36.9355C84.7907 37.2943 85.291 37.4736 85.9314 37.4736C86.6719 37.4736 87.3022 37.2743 87.8226 36.8757L89.0834 40.164Z" fill="white"/>
<path d="M98.2261 24.6194C100.728 24.6194 102.649 25.2173 103.99 26.413C105.331 27.5888 106.001 29.3725 106.001 31.7639V40.9413H101.618V38.9384C100.738 40.4331 99.0967 41.1804 96.6952 41.1804C95.4544 41.1804 94.3737 40.9712 93.4532 40.5527C92.5526 40.1341 91.8622 39.5562 91.3819 38.8188C90.9016 38.0815 90.6614 37.2444 90.6614 36.3078C90.6614 34.8131 91.2218 33.6373 92.3425 32.7803C93.4832 31.9234 95.2343 31.4949 97.5957 31.4949H101.318C101.318 30.4785 101.008 29.7013 100.387 29.1632C99.7671 28.6052 98.8365 28.3262 97.5957 28.3262C96.7352 28.3262 95.8847 28.4657 95.0442 28.7447C94.2236 29.0038 93.5232 29.3625 92.9429 29.8209L91.2618 26.5625C92.1424 25.9447 93.193 25.4664 94.4138 25.1276C95.6545 24.7888 96.9253 24.6194 98.2261 24.6194ZM97.8659 38.0416C98.6664 38.0416 99.3768 37.8622 99.9972 37.5035C100.618 37.1249 101.058 36.5768 101.318 35.8594V34.2152H98.1061C96.1849 34.2152 95.2243 34.843 95.2243 36.0985C95.2243 36.6964 95.4544 37.1747 95.9147 37.5334C96.395 37.8722 97.0454 38.0416 97.8659 38.0416Z" fill="white"/>
<path d="M114.712 26.981C115.272 26.2037 116.023 25.6158 116.963 25.2173C117.924 24.8187 119.025 24.6194 120.265 24.6194V28.9241C119.745 28.8842 119.395 28.8643 119.215 28.8643C117.874 28.8643 116.823 29.2429 116.063 30.0002C115.302 30.7376 114.922 31.8536 114.922 33.3483V40.9413H110.239V24.8585H114.712V26.981Z" fill="white"/>
<path d="M139.354 18.7602V40.9413H134.881V39.0879C133.72 40.4829 132.039 41.1804 129.838 41.1804C128.317 41.1804 126.936 40.8416 125.695 40.164C124.474 39.4864 123.514 38.5199 122.813 37.2644C122.113 36.0088 121.763 34.554 121.763 32.8999C121.763 31.2458 122.113 29.791 122.813 28.5354C123.514 27.2799 124.474 26.3134 125.695 25.6358C126.936 24.9582 128.317 24.6194 129.838 24.6194C131.899 24.6194 133.51 25.2671 134.671 26.5625V18.7602H139.354ZM130.648 37.354C131.829 37.354 132.809 36.9555 133.59 36.1583C134.37 35.3412 134.761 34.2551 134.761 32.8999C134.761 31.5447 134.37 30.4686 133.59 29.6714C132.809 28.8543 131.829 28.4458 130.648 28.4458C129.447 28.4458 128.457 28.8543 127.676 29.6714C126.896 30.4686 126.506 31.5447 126.506 32.8999C126.506 34.2551 126.896 35.3412 127.676 36.1583C128.457 36.9555 129.447 37.354 130.648 37.354Z" fill="white"/>
<path d="M151.372 41.1804C149.671 41.1804 148.14 40.8317 146.78 40.1341C145.439 39.4167 144.388 38.4302 143.628 37.1747C142.867 35.9191 142.487 34.4942 142.487 32.8999C142.487 31.3056 142.867 29.8807 143.628 28.6251C144.388 27.3696 145.439 26.3931 146.78 25.6956C148.14 24.9781 149.671 24.6194 151.372 24.6194C153.073 24.6194 154.594 24.9781 155.935 25.6956C157.276 26.3931 158.327 27.3696 159.087 28.6251C159.848 29.8807 160.228 31.3056 160.228 32.8999C160.228 34.4942 159.848 35.9191 159.087 37.1747C158.327 38.4302 157.276 39.4167 155.935 40.1341C154.594 40.8317 153.073 41.1804 151.372 41.1804ZM151.372 37.354C152.573 37.354 153.554 36.9555 154.314 36.1583C155.095 35.3412 155.485 34.2551 155.485 32.8999C155.485 31.5447 155.095 30.4686 154.314 29.6714C153.554 28.8543 152.573 28.4458 151.372 28.4458C150.172 28.4458 149.181 28.8543 148.401 29.6714C147.62 30.4686 147.23 31.5447 147.23 32.8999C147.23 34.2551 147.62 35.3412 148.401 36.1583C149.181 36.9555 150.172 37.354 151.372 37.354Z" fill="white"/>
<g style="mix-blend-mode:screen" opacity="0.8" filter="url(#filter1_f_95_284)">
<ellipse cx="36.159" cy="30.6021" rx="23.2215" ry="9.20566" fill="url(#paint8_linear_95_284)"/>
</g>
<path d="M63.4608 49.8604V55.8979H55.4912V49.8604H56.8799V54.7594H58.786V49.8604H60.1747V54.7594H62.0722V49.8604H63.4608Z" fill="white"/>
<path d="M66.8993 54.1384H66.2006V55.8979H64.8551V51.2576H66.2006V53.0603H66.9252L68.1844 51.2576H69.6162L67.9947 53.4829L69.7283 55.8979H68.1413L66.8993 54.1384Z" fill="white"/>
<path d="M72.4194 55.9669C71.9306 55.9669 71.4907 55.8663 71.0997 55.6651C70.7145 55.4581 70.4126 55.1734 70.1941 54.8112C69.9756 54.4489 69.8663 54.0378 69.8663 53.5778C69.8663 53.1178 69.9756 52.7066 70.1941 52.3444C70.4126 51.9821 70.7145 51.7004 71.0997 51.4991C71.4907 51.2921 71.9306 51.1886 72.4194 51.1886C72.9081 51.1886 73.3451 51.2921 73.7304 51.4991C74.1156 51.7004 74.4175 51.9821 74.636 52.3444C74.8545 52.7066 74.9638 53.1178 74.9638 53.5778C74.9638 54.0378 74.8545 54.4489 74.636 54.8112C74.4175 55.1734 74.1156 55.4581 73.7304 55.6651C73.3451 55.8663 72.9081 55.9669 72.4194 55.9669ZM72.4194 54.8629C72.7644 54.8629 73.0461 54.7479 73.2646 54.5179C73.4889 54.2822 73.601 53.9688 73.601 53.5778C73.601 53.1868 73.4889 52.8763 73.2646 52.6463C73.0461 52.4105 72.7644 52.2926 72.4194 52.2926C72.0744 52.2926 71.7897 52.4105 71.5655 52.6463C71.3412 52.8763 71.2291 53.1868 71.2291 53.5778C71.2291 53.9688 71.3412 54.2822 71.5655 54.5179C71.7897 54.7479 72.0744 54.8629 72.4194 54.8629Z" fill="white"/>
<path d="M80.2724 51.2576V55.8979H78.9269V52.3616H77.4606L77.4175 53.181C77.3945 53.7905 77.337 54.2965 77.245 54.699C77.153 55.1016 77.0035 55.4178 76.7965 55.6478C76.5895 55.8778 76.302 55.9928 75.934 55.9928C75.7385 55.9928 75.5056 55.9583 75.2353 55.8893L75.3043 54.7853C75.3963 54.7968 75.4625 54.8025 75.5027 54.8025C75.704 54.8025 75.8535 54.7307 75.9512 54.5869C76.0547 54.4374 76.1237 54.2505 76.1582 54.0263C76.1927 53.7963 76.2186 53.4944 76.2358 53.1206L76.3048 51.2576H80.2724Z" fill="white"/>
<path d="M83.369 51.1886C84.0877 51.1886 84.6397 51.3611 85.025 51.7061C85.4102 52.0454 85.6029 52.56 85.6029 53.25V55.8979H84.3436V55.3201C84.0906 55.7513 83.6191 55.9669 82.9291 55.9669C82.5726 55.9669 82.2621 55.9066 81.9976 55.7858C81.7388 55.6651 81.5404 55.4983 81.4024 55.2856C81.2644 55.0728 81.1954 54.8313 81.1954 54.561C81.1954 54.1298 81.3564 53.7905 81.6784 53.5433C82.0062 53.296 82.5093 53.1724 83.1878 53.1724H84.2573C84.2573 52.8791 84.1682 52.6549 83.99 52.4996C83.8117 52.3386 83.5443 52.2581 83.1878 52.2581C82.9406 52.2581 82.6962 52.2984 82.4547 52.3789C82.2189 52.4536 82.0177 52.5571 81.8509 52.6894L81.3679 51.7493C81.6209 51.571 81.9228 51.433 82.2736 51.3352C82.6301 51.2375 82.9952 51.1886 83.369 51.1886ZM83.2654 55.0613C83.4955 55.0613 83.6996 55.0095 83.8778 54.906C84.0561 54.7968 84.1826 54.6387 84.2573 54.4317V53.9573H83.3344C82.7824 53.9573 82.5064 54.1384 82.5064 54.5007C82.5064 54.6732 82.5726 54.8112 82.7048 54.9147C82.8428 55.0124 83.0297 55.0613 83.2654 55.0613Z" fill="white"/>
<path d="M93.7425 55.8979V53.1206L92.3539 55.4494H91.7846L90.4305 53.112V55.8979H89.2144V51.2576H90.6203L92.1038 53.94L93.6822 51.2576H94.9414L94.9587 55.8979H93.7425Z" fill="white"/>
<path d="M100.896 51.2576L98.8006 56.1826C98.5878 56.7173 98.3233 57.094 98.0071 57.3125C97.6966 57.531 97.3199 57.6402 96.8772 57.6402C96.6357 57.6402 96.397 57.6028 96.1613 57.5281C95.9255 57.4533 95.7329 57.3498 95.5834 57.2176L96.075 56.2602C96.1785 56.3522 96.2964 56.4241 96.4287 56.4758C96.5667 56.5276 96.7018 56.5534 96.834 56.5534C97.018 56.5534 97.1676 56.5074 97.2826 56.4154C97.3976 56.3292 97.5011 56.1826 97.5931 55.9756L97.6103 55.9324L95.6007 51.2576H96.9893L98.2917 54.4058L99.6027 51.2576H100.896Z" fill="white"/>
<path d="M104.455 53.4829C104.731 53.5692 104.943 53.7014 105.093 53.8797C105.248 54.0579 105.326 54.2707 105.326 54.5179C105.326 54.8112 105.225 55.0699 105.024 55.2942C104.823 55.5127 104.547 55.6823 104.196 55.8031C103.845 55.9238 103.448 55.9842 103.006 55.9842C102.643 55.9842 102.287 55.9468 101.936 55.8721C101.585 55.7973 101.261 55.6852 100.962 55.5357L101.324 54.5955C101.813 54.8313 102.353 54.9492 102.945 54.9492C103.262 54.9492 103.509 54.9032 103.687 54.8112C103.871 54.7134 103.963 54.5783 103.963 54.4058C103.963 54.2563 103.9 54.1442 103.773 54.0694C103.647 53.9889 103.463 53.9487 103.221 53.9487H102.273V53.112H103.101C103.336 53.112 103.517 53.0746 103.644 52.9999C103.77 52.9251 103.834 52.8159 103.834 52.6721C103.834 52.5226 103.753 52.4076 103.592 52.3271C103.437 52.2466 103.213 52.2064 102.919 52.2064C102.471 52.2064 101.982 52.3128 101.453 52.5255L101.125 51.594C101.769 51.3122 102.396 51.1714 103.006 51.1714C103.425 51.1714 103.799 51.2231 104.127 51.3266C104.46 51.4301 104.722 51.5825 104.912 51.7838C105.102 51.9793 105.196 52.2093 105.196 52.4738C105.196 52.6923 105.13 52.8906 104.998 53.0689C104.866 53.2414 104.685 53.3794 104.455 53.4829Z" fill="white"/>
<path d="M108.745 52.7411C109.349 52.7469 109.806 52.882 110.117 53.1465C110.427 53.411 110.583 53.7905 110.583 54.285C110.583 54.8025 110.407 55.2022 110.056 55.4839C109.706 55.7657 109.208 55.9066 108.564 55.9066L106.305 55.8979V51.2576H107.641V52.7411H108.745ZM111.083 51.2576H112.42V55.8979H111.083V51.2576ZM108.444 54.9492C108.702 54.9549 108.901 54.9003 109.039 54.7853C109.177 54.6703 109.246 54.4978 109.246 54.2678C109.246 54.0435 109.177 53.8797 109.039 53.7762C108.906 53.6727 108.708 53.618 108.444 53.6123L107.641 53.6037V54.9492H108.444Z" fill="white"/>
<path d="M115.761 54.1384H115.062V55.8979H113.717V51.2576H115.062V53.0603H115.787L117.046 51.2576H118.478L116.856 53.4829L118.59 55.8979H117.003L115.761 54.1384Z" fill="white"/>
<path d="M119.251 51.2576H120.588V54.0177L122.847 51.2576H124.081V55.8979H122.744V53.1379L120.493 55.8979H119.251V51.2576Z" fill="white"/>
</g>
<defs>
<filter id="filter0_d_95_284" x="8.95629" y="7.29664" width="54.2388" height="54.2388" filterUnits="userSpaceOnUse" color-interpolation-filters="sRGB">
<feFlood flood-opacity="0" result="BackgroundImageFix"/>
<feColorMatrix in="SourceAlpha" type="matrix" values="0 0 0 0 0 0 0 0 0 0 0 0 0 0 0 0 0 0 127 0" result="hardAlpha"/>
<feOffset dy="3.81496"/>
<feGaussianBlur stdDeviation="5.05896"/>
<feComposite in2="hardAlpha" operator="out"/>
<feColorMatrix type="matrix" values="0 0 0 0 0.341176 0 0 0 0 0.12549 0 0 0 0 0.662745 0 0 0 0.56 0"/>
<feBlend mode="normal" in2="BackgroundImageFix" result="effect1_dropShadow_95_284"/>
<feBlend mode="normal" in="SourceGraphic" in2="effect1_dropShadow_95_284" result="shape"/>
</filter>
<filter id="filter1_f_95_284" x="-9.28877" y="-0.829784" width="90.8959" height="62.8637" filterUnits="userSpaceOnUse" color-interpolation-filters="sRGB">
<feFlood flood-opacity="0" result="BackgroundImageFix"/>
<feBlend mode="normal" in="SourceGraphic" in2="BackgroundImageFix" result="shape"/>
<feGaussianBlur stdDeviation="11.1131" result="effect1_foregroundBlur_95_284"/>
</filter>
<radialGradient id="paint0_radial_95_284" cx="0" cy="0" r="1" gradientUnits="userSpaceOnUse" gradientTransform="translate(36.1456 15.2588) rotate(90) scale(15.3428)">
<stop offset="0.145833" stop-color="#EC2D70"/>
<stop offset="1" stop-color="#4B1BA9" stop-opacity="0.25"/>
</radialGradient>
<radialGradient id="paint1_radial_95_284" cx="0" cy="0" r="1" gradientUnits="userSpaceOnUse" gradientTransform="translate(36.1456 45.9443) rotate(-90) scale(16.1099 16.8028)">
<stop offset="0.0989583" stop-color="#27FB95"/>
<stop offset="1" stop-color="#5F22C3" stop-opacity="0.25"/>
</radialGradient>
<radialGradient id="paint2_radial_95_284" cx="0" cy="0" r="1" gradientUnits="userSpaceOnUse" gradientTransform="translate(20.1529 30.6016) scale(16.0062 16.1521)">
<stop stop-color="#D95E19"/>
<stop offset="1" stop-color="#651FF9" stop-opacity="0.25"/>
</radialGradient>
<radialGradient id="paint3_radial_95_284" cx="0" cy="0" r="1" gradientUnits="userSpaceOnUse" gradientTransform="translate(52.5297 30.6016) rotate(-180) scale(16.3841 17.9282)">
<stop stop-color="#46E5EB"/>
<stop offset="1" stop-color="#651FF9" stop-opacity="0"/>
</radialGradient>
<radialGradient id="paint4_radial_95_284" cx="0" cy="0" r="1" gradientUnits="userSpaceOnUse" gradientTransform="translate(36.1526 13.5996) rotate(90) scale(17.0014)">
<stop offset="0.145833" stop-color="#EC2D70"/>
<stop offset="1" stop-color="#4B1BA9" stop-opacity="0.25"/>
</radialGradient>
<radialGradient id="paint5_radial_95_284" cx="0" cy="0" r="1" gradientUnits="userSpaceOnUse" gradientTransform="translate(36.1526 47.6025) rotate(-90) scale(17.8515 18.6193)">
<stop offset="0.0989583" stop-color="#27FB95"/>
<stop offset="1" stop-color="#5F22C3" stop-opacity="0.25"/>
</radialGradient>
<radialGradient id="paint6_radial_95_284" cx="0" cy="0" r="1" gradientUnits="userSpaceOnUse" gradientTransform="translate(18.4309 30.601) scale(17.7366 17.8982)">
<stop stop-color="#D95E19"/>
<stop offset="1" stop-color="#651FF9" stop-opacity="0.25"/>
</radialGradient>
<radialGradient id="paint7_radial_95_284" cx="0" cy="0" r="1" gradientUnits="userSpaceOnUse" gradientTransform="translate(54.308 30.601) rotate(-180) scale(18.1554 19.8664)">
<stop stop-color="#46E5EB"/>
<stop offset="1" stop-color="#651FF9" stop-opacity="0"/>
</radialGradient>
<linearGradient id="paint8_linear_95_284" x1="47.5854" y1="27.8114" x2="18.0978" y2="27.8114" gradientUnits="userSpaceOnUse">
<stop stop-color="#02301C"/>
<stop offset="1" stop-color="#953C75"/>
</linearGradient>
<clipPath id="clip0_95_284">
<rect width="173" height="72.4842" fill="white"/>
</clipPath>
</defs>
</svg>
